<?xml version="1.0" encoding="utf-8"?>
<!-- Generator: Adobe Illustrator 14.0.0, SVG Export Plug-In . SVG Version: 6.00 Build 43363)  -->
<!DOCTYPE svg PUBLIC "-//W3C//DTD SVG 1.1//EN" "http://www.w3.org/Graphics/SVG/1.1/DTD/svg11.dtd">
<svg version="1.1" id="Layer_1" xmlns="http://www.w3.org/2000/svg" xmlns:xlink="http://www.w3.org/1999/xlink" x="0px" y="0px"
	 width="288px" height="288px" viewBox="0 0 288 288" enable-background="new 0 0 288 288" xml:space="preserve">
<g>
	<path fill="#FFFFFF" d="M280.886,104.349c-0.001-0.017-0.018-0.022-0.021-0.038c-0.004-0.021,0.014-0.035,0.008-0.057
		c-1.615-6.365-8.109-10.924-13.15-14.528c-1.562-1.118-3.178-2.165-4.801-3.195c-0.729-0.461-1.469-0.909-2.207-1.357
		c-0.182-0.108-0.361-0.217-0.546-0.326c3.349,0.312,6.728,0.039,9.923-1.043c4.622-1.565,9.098-6.546,4.61-10.665
		c-4.354-3.998-11.66-5.301-17.214-6.428c-17.243-3.503-34.282-1.133-50.59,5.235c-3.963,1.547-7.832,3.326-11.664,5.162
		c-1.441,0.692-1.098,0.683-0.358-0.731c0.381-0.726,0.769-1.574,1.067-2.336c1.035-2.621,1.764-5.253,2.181-8.042
		c1.022-6.844-0.151-15.375-2.327-21.882c-4.941-14.774-22.15-9.994-31.472-2.586c-12.845,10.206-22.981,23.908-32.45,37.172
		c-1.079,1.51-2.142,3.031-3.198,4.555c-1.224,1.763-3.407-0.683-4.751-1.556c-3.875-2.514-7.919-4.764-12.01-6.903
		c-6.947-3.632-14.147-6.813-21.495-9.543c-3.312-1.23-8.311-3.746-11.992-3.202c-2.13,0.313,0.164,4.284,0.584,5.223
		c2.354,5.265,5.292,10.295,8.176,15.282c1.06,1.833,2.137,3.657,3.244,5.465c0.251,0.409,0.503,0.82,0.774,1.218
		c1.376,2.025,0.036,1.394-1.676,0.951c-7.132-1.847-14.034-6.958-21.518-3.484c-5.893,2.733,0.159,10.173,2.542,13.122
		c1.124,1.393,2.343,2.71,3.571,4.01c0.537,0.566,1.086,1.118,1.635,1.67c0.667,0.672,1.413,0.733,0.298,0.756
		c-2.524,0.054-5.053,0.12-7.573,0.285c-2.747,0.179-5.488,0.446-8.225,0.744c-10.338,1.13-20.695,2.873-30.647,5.935
		c-7.534,2.318-18.24,6.083-21.474,14.119c-2.684,6.676-0.047,16.533,2.719,22.806c4.412,10.003,13.455,16.878,22.942,21.733
		c12.848,6.574,27.006,9.682,41.092,12.271c0.54,0.099,1.081,0.196,1.62,0.297c-0.887-0.164-1.452,3.253-1.464,3.785
		c-0.042,1.976,0.542,3.274,2.368,4.094c1.895,0.853,4.575,0.108,6.469-0.344c1.954-0.47,3.87-1.169,5.719-1.943
		c0.526-0.222,3.546-2.748,3.827-2.702c0.001,0,0.003,0,0.006,0c0,0,0,0.002,0.003,0.002c4.483,0.625,8.969,1.227,13.454,1.825
		c2.976,0.399,5.162,3.483,8.188,3.619c0.018,0.009,0.036,0.019,0.056,0.024c-1.706,0.068-3.412,0.145-5.119,0.225
		c-10.598,0.495-21.192,1.178-31.753,2.206c-8.848,0.86-18.476,1.483-26.866,4.646c-10.167,3.834-20.179,8.133-30.163,12.42
		c-0.135,0.057-0.216,0.269-0.164,0.4c1.018,2.65,3.596,3.723,6.204,4.446c7.835,2.173,16.803,0.46,24.629-0.963
		c18.366-3.337,36.292-8.779,54.33-13.496c0.804-0.21,1.609-0.413,2.415-0.61c-0.558,0.27-1.117,0.535-1.673,0.805
		c-4.399,2.125-8.777,4.308-13.04,6.69c-6.299,3.521-12.284,8.076-17.747,12.774c-1.717,1.477-8.292,6.99-3.18,8.471
		c2.393,0.693,5.314-1.293,7.243-2.383c4.433-2.506,8.873-4.553,13.559-6.544c9.149-3.89,17.734-9.398,25.923-14.991
		c0.806-0.551,3.291-2.969,3.919-2.35c0.498,0.486,1.007,0.963,1.519,1.435c1.786,1.649,3.657,3.207,5.565,4.713
		c12.348,9.751,27.021,16.757,42.658,19.004c8.4,1.207,16.893,2.146,25.377,2.468c4.826,0.184,11.748,0.854,15.856-2.346
		c1.349-1.05,1.671-3.052,1.854-4.63c0.559-4.743,0.318-9.556,0.091-14.312c-0.339-7.03-1.078-13.58-2.862-20.404
		c-1.75-6.699-3.872-13.744-7.496-19.701c-0.348-0.571,2.795-3.712,3.12-4.154c1.403-1.908,2.667-3.878,3.821-5.947
		c2.121-3.805,3.607-7.951,4.744-12.144c0.896-3.31,1.436-6.71,1.808-10.116c0.056-0.515,0.651-3.867,0.149-4.092
		c1.132,0.507,2.272,0.99,3.416,1.467c3.367,1.407,6.8,2.662,10.293,3.72c2.41,0.731,6.85,2.382,9.422,1.477
		c4.996-1.76,2.474-9.39,1.343-12.912c-1.099-3.422-2.651-6.705-4.351-9.867c-0.908-1.688-1.928-3.313-2.996-4.903
		c-0.217-0.321-2.358-3.59-2.617-3.562c4.8-0.537,9.9,0.754,14.595,1.604c4.833,0.876,9.658,1.791,14.552,2.279
		c4.955,0.495,15.604,0.727,17.197-5.941C281.004,106.499,281.043,105.601,280.886,104.349z M93.883,187.057
		c0.003,0,0.004,0,0.007,0c0,0.002-0.005,0.004-0.007,0.006C93.885,187.061,93.883,187.059,93.883,187.057z"/>
	<g>
		<g>
			<g>
				<path fill="#674E64" d="M133.509,126.15c1.823-1.369,3.492,5.808,3.382,10.08s-1.246,13.575-4.094,8.592
					C129.949,139.839,130.661,128.286,133.509,126.15z"/>
			</g>
		</g>
		<g>
			<g>
				<path fill="#674E64" d="M159.33,119.916c-1.283,0.004-4.094,2.14-3.203,9.259c0.891,7.12,3.684,4.428,4.125,0.178
					C160.684,125.201,160.863,119.912,159.33,119.916z"/>
			</g>
		</g>
		<path fill="#674E64" d="M161.441,134.707c-2.407,0-4.824,0.538-6.627,1.478c-5.158,2.687-8.176,9.618-9.514,13.51
			c-0.111,0.32-0.072,0.64,0.109,0.896c0.195,0.272,0.544,0.444,0.908,0.444c0.479,0,0.871-0.28,1.025-0.73
			c1.207-3.508,3.043-6.792,5.305-9.503c2.031-2.432,4.373-3.596,7.822-3.888c3.504-0.302,8.038,0.832,8.278,4.743
			c0.063,1.055,1.365,1.255,1.88,0.704c0.184-0.195,0.271-0.454,0.253-0.748C170.572,136.521,165.805,134.707,161.441,134.707z"/>
		<path fill="#674E64" d="M155.002,142.613c-0.145-0.46-0.534-0.745-1.016-0.745c-0.359,0-0.707,0.169-0.906,0.44
			c-0.188,0.255-0.23,0.574-0.118,0.929c0.476,1.498,1.065,3.363,0.836,4.919c-0.048,0.328,0.044,0.644,0.257,0.89
			c0.225,0.259,0.559,0.413,0.896,0.413c0.489,0,0.854-0.322,0.929-0.82C156.164,146.674,155.626,144.581,155.002,142.613z"/>
		<path fill="#674E64" d="M159.139,140.033v3.916c0,0.686,0.538,1.044,1.067,1.044c0.53,0,1.067-0.359,1.067-1.044v-3.916
			C161.273,138.662,159.139,138.662,159.139,140.033z"/>
		<path fill="#674E64" d="M193.755,128.551l-5.954-3.493c-0.607-0.36-1.376-0.004-1.562,0.674c-0.128,0.472,0.056,0.919,0.479,1.169
			l4.111,2.411c-1.68,2.801-8.706,13.641-21.904,22.799l0.002-0.146l-1.609,1.242c-3.752,2.467-7.754,4.629-11.873,6.42
			c-3.043,1.062-7.87,2.331-13.592,2.331c-9.152,0-17.657-3.146-25.285-9.354c0.881,0.035,1.763,0.058,2.642,0.058
			c2.411,0,4.494-0.167,6.366-0.513c0.528-0.098,0.85-0.521,0.801-1.053c-0.052-0.558-0.54-1.154-1.31-1.021
			c-1.716,0.315-3.632,0.47-5.859,0.47c-2.358,0-4.757-0.17-7.078-0.334c-0.826-0.059-1.644-0.117-2.523-0.168
			c-0.555,0-0.972,0.416-0.989,0.99c-0.017,0.523,0.336,1.105,1.021,1.146c0.776,0.047,1.563,0.101,2.357,0.153l1.863,0.123
			c1.606,4.593,9.493,24.894,25.509,32.104c0.928,0.412,1.709,0.725,2.458,0.979l0.364,0.04l0.006-0.013
			c0.453,0.115,0.915,0.174,1.371,0.174c3.615,0,7.23-3.573,10.744-10.619c3.506-0.868,6.266-1.859,8.201-2.952
			c4.496-2.536,5.502-3.714,5.703-4.017l0.11-0.168l0.512-13.227c14.153-9.42,21.628-20.665,23.837-24.366l0.001,0.001
			c0.171,0.1,0.353,0.151,0.537,0.151c0.47,0,0.892-0.341,1.022-0.829C194.363,129.246,194.178,128.8,193.755,128.551z
			 M137.071,180.941c-4.779-2.914-9.229-7.435-13.238-13.446c0.625-0.185,1.476-0.356,2.49-0.356c2.659,0,5.137,1.146,7.363,3.401
			C136.761,173.654,137.898,177.152,137.071,180.941z M166.646,156.299l-0.373,10.829c-0.445,0.419-1.684,1.417-4.812,3.183
			c-3.35,1.89-8.932,3.086-11.577,3.575v-10.104C157.514,161.926,163.798,158.189,166.646,156.299z"/>
		<path fill="#674E64" d="M280.886,104.349c-0.001-0.017-0.018-0.022-0.021-0.038c-0.004-0.021,0.014-0.035,0.008-0.057
			c-1.615-6.365-8.109-10.924-13.15-14.528c-1.562-1.118-3.178-2.165-4.801-3.195c-0.729-0.461-1.469-0.909-2.207-1.357
			c-0.182-0.108-0.361-0.217-0.546-0.326c3.349,0.312,6.728,0.039,9.923-1.043c4.622-1.565,9.098-6.546,4.61-10.665
			c-4.354-3.998-11.66-5.301-17.214-6.428c-17.243-3.503-34.282-1.133-50.59,5.235c-3.963,1.547-7.832,3.326-11.664,5.162
			c-1.441,0.692-1.098,0.683-0.358-0.731c0.381-0.726,0.769-1.574,1.067-2.336c1.035-2.621,1.764-5.253,2.181-8.042
			c1.022-6.844-0.151-15.375-2.327-21.882c-4.941-14.774-22.15-9.994-31.472-2.586c-12.845,10.206-22.981,23.908-32.45,37.172
			c-1.079,1.51-2.142,3.031-3.198,4.555c-1.224,1.763-3.407-0.683-4.751-1.556c-3.875-2.514-7.919-4.764-12.01-6.903
			c-6.947-3.632-14.147-6.813-21.495-9.543c-3.312-1.23-8.311-3.746-11.992-3.202c-2.13,0.313,0.164,4.284,0.584,5.223
			c2.354,5.265,5.292,10.295,8.176,15.282c1.06,1.833,2.137,3.657,3.244,5.465c0.251,0.409,0.503,0.82,0.774,1.218
			c1.376,2.025,0.036,1.394-1.676,0.951c-7.132-1.847-14.034-6.958-21.518-3.484c-5.893,2.733,0.159,10.173,2.542,13.122
			c1.124,1.393,2.343,2.71,3.571,4.01c0.537,0.566,1.086,1.118,1.635,1.67c0.667,0.672,1.413,0.733,0.298,0.756
			c-2.524,0.054-5.053,0.12-7.573,0.285c-2.747,0.179-5.488,0.446-8.225,0.744c-10.338,1.13-20.695,2.873-30.647,5.935
			c-7.534,2.318-18.24,6.083-21.474,14.119c-2.684,6.676-0.047,16.533,2.719,22.806c4.412,10.003,13.455,16.878,22.942,21.733
			c12.848,6.574,27.006,9.682,41.092,12.271c0.54,0.099,1.081,0.196,1.62,0.297c-0.887-0.164-1.452,3.253-1.464,3.785
			c-0.042,1.976,0.542,3.274,2.368,4.094c1.895,0.853,4.575,0.108,6.469-0.344c1.954-0.47,3.87-1.169,5.719-1.943
			c0.526-0.222,3.546-2.748,3.827-2.702c0.001,0,0.003,0,0.006,0c0,0,0,0.002,0.003,0.002c4.483,0.625,8.969,1.227,13.454,1.825
			c2.976,0.399,5.162,3.483,8.188,3.619c0.018,0.009,0.036,0.019,0.056,0.024c-1.706,0.068-3.412,0.145-5.119,0.225
			c-10.598,0.495-21.192,1.178-31.753,2.206c-8.848,0.86-18.476,1.483-26.866,4.646c-10.167,3.834-20.179,8.133-30.163,12.42
			c-0.135,0.057-0.216,0.269-0.164,0.4c1.018,2.65,3.596,3.723,6.204,4.446c7.835,2.173,16.803,0.46,24.629-0.963
			c18.366-3.337,36.292-8.779,54.33-13.496c0.804-0.21,1.609-0.413,2.415-0.61c-0.558,0.27-1.117,0.535-1.673,0.805
			c-4.399,2.125-8.777,4.308-13.04,6.69c-6.299,3.521-12.284,8.076-17.747,12.774c-1.717,1.477-8.292,6.99-3.18,8.471
			c2.393,0.693,5.314-1.293,7.243-2.383c4.433-2.506,8.873-4.553,13.559-6.544c9.149-3.89,17.734-9.398,25.923-14.991
			c0.806-0.551,3.291-2.969,3.919-2.35c0.498,0.486,1.007,0.963,1.519,1.435c1.786,1.649,3.657,3.207,5.565,4.713
			c12.348,9.751,27.021,16.757,42.658,19.004c8.4,1.207,16.893,2.146,25.377,2.468c4.826,0.184,11.748,0.854,15.856-2.346
			c1.349-1.05,1.671-3.052,1.854-4.63c0.559-4.743,0.318-9.556,0.091-14.312c-0.339-7.03-1.078-13.58-2.862-20.404
			c-1.75-6.699-3.872-13.744-7.496-19.701c-0.348-0.571,2.795-3.712,3.12-4.154c1.403-1.908,2.667-3.878,3.821-5.947
			c2.121-3.805,3.607-7.951,4.744-12.144c0.896-3.31,1.436-6.71,1.808-10.116c0.056-0.515,0.651-3.867,0.149-4.092
			c1.132,0.507,2.272,0.99,3.416,1.467c3.367,1.407,6.8,2.662,10.293,3.72c2.41,0.731,6.85,2.382,9.422,1.477
			c4.996-1.76,2.474-9.39,1.343-12.912c-1.099-3.422-2.651-6.705-4.351-9.867c-0.908-1.688-1.928-3.313-2.996-4.903
			c-0.217-0.321-2.358-3.59-2.617-3.562c4.8-0.537,9.9,0.754,14.595,1.604c4.833,0.876,9.658,1.791,14.552,2.279
			c4.955,0.495,15.604,0.727,17.197-5.941C281.004,106.499,281.043,105.601,280.886,104.349z M111.128,199.381
			c-7.64,1.201-15.184,3.885-22.646,5.887c-9.158,2.459-18.341,4.834-27.594,6.908c-9.151,2.053-18.57,4.04-27.993,3.645
			c-2.951-0.125-6.671-0.588-9.034-2.59c0.907,0.769,7.865-3.047,9.232-3.617c7.37-3.076,14.836-6.784,22.579-8.809
			c5.709-1.492,11.655-2.185,17.503-2.854c12.601-1.446,25.285-2.216,37.95-2.812c2.617-0.125,5.233-0.236,7.848-0.328
			c0.503-0.018,1.082,0.27,1.555,0.407c0.579,0.171,1.158,0.343,1.738,0.513C118.726,197.324,114.958,198.747,111.128,199.381z
			 M92.766,185.232c-2.787,2.598-6.035,3.783-9.656,4.746c-1.321,0.353-2.667,0.543-4.03,0.521
			c-2.702-0.042-1.852-2.812-1.296-4.418c1.771-5.119,5.395-9.629,7.931-14.389c0.134-0.248-0.089-0.646-0.4-0.522
			c-6.249,2.501-13.649,5.154-20.413,3.356c-6.858-1.819,1.379-10.566,3.371-12.67c5.893-6.227,12.373-11.877,18.221-18.167
			c4.127-4.438,8.099-9.024,11.913-13.735c0.886-1.094,1.759-2.2,2.618-3.315c0.026,0.239,0.053,0.477,0.08,0.714
			c0.096,0.887,0.182,1.774,0.264,2.663c0.491,5.253,0.747,10.529,0.805,15.804C102.31,158.521,102.051,175.414,92.766,185.232z
			 M277.91,108.39c-5.617,6.141-17.971,2.784-24.934,1.537c-7.215-1.292-15.09-3.564-22.357-1.559
			c-0.256,0.07-0.352,0.409-0.157,0.595c5.406,5.17,9.009,12.011,11.533,18.99c1.037,2.867,2.101,6.193,1.685,9.273
			c-0.5,3.729-9.746,0.19-11.722-0.451c-3.25-1.054-6.433-2.326-9.573-3.663c-0.767-0.327-1.529-0.665-2.289-1.008
			c-0.227-0.102,0.014-4.866-0.01-5.547c-0.086-2.644-1.031-5.342-3.111-7.039c-1.483-1.209-4.041-1.428-5.824-1.93
			c-7.473-2.103-14.939-4.484-22.033-7.653c-0.76-0.339-1.504-0.709-2.247-1.079c-0.579-0.29-1.927-0.482-0.798-0.91
			c2.021-0.763,4.013-1.599,5.996-2.449c4.037-1.731,7.979-3.683,11.826-5.794c1.478-0.81,7.479-3.048,6.957-5.384
			c-0.354-1.583-3.072,0.631-3.525,0.914c-23.387,14.571-52.199,21.529-79.598,19.661c-5.256-0.359-10.475-1.14-15.636-2.181
			c-0.908-0.183,3.091-5.561,3.499-6.14c1.257-1.787,2.51-3.578,3.76-5.37c0.792-1.136,3.418-0.339,4.718-0.267
			c3.445,0.189,6.901,0.136,10.347-0.042c9.583-0.493,19.062-2.452,28.08-5.721c9.516-3.45,18.441-8.483,27.441-13.057
			c19.498-9.903,39.887-17.306,62.047-14.169c3.274,0.464,27.146,4.458,21.509,11.146c-4.245,5.034-13.331,4.199-19.015,2.592
			c-0.201-0.057-0.365,0.07-0.438,0.249c-0.175,0.438-0.35,0.877-0.525,1.317c-0.059,0.139,0.033,0.334,0.164,0.4
			c3.92,2.04,7.703,4.369,11.369,6.833C269.484,93.47,282.271,101.638,277.91,108.39z M206.161,167.207
			c-9.896,11.425-25.489,18.092-39.226,23.615c-1.146,0.459-2.295,0.902-3.447,1.345c-0.469,0.181-0.94,0.354-1.411,0.528
			c-0.203,0.078-0.336,0.144-0.435,0.199c0.074-0.08,0.159-0.189,0.244-0.354c0.856-1.627,3.245-5.855,1.227-7.225
			c-1.479-1.002-1.904,3.121-2.016,3.5c-1.502,5.08-5.26,9.322-10.203,11.217c-3.838,1.472-8.357,0.846-12.156-0.389
			c-2.215-0.721-4.217-1.943-5.977-3.451c-1.948-1.672-2.369-3.693-3.584-5.77c-0.312-0.531-1.781-1.185-1.942-0.096
			c-0.16,1.087,0.236,2.044,0.756,3.025c1.033,1.951-0.823,1.088-2.105,0.857c-1.543-0.277-3.062-0.679-4.57-1.096
			c-8.072-2.237-15.467-6.721-21.638-12.321c-1.343-1.217,1.562-6.835,2.02-8.515c0.98-3.59,1.54-7.287,1.968-10.979
			c1.404-12.082,0.826-24.55-0.717-36.598c-0.134-1.032,0.96-1.871,1.557-2.668c1.406-1.883,2.778-3.792,4.152-5.7
			c1.886-2.62,4.981-1.112,7.69-0.646c2.603,0.448,5.224,0.769,7.848,1.049c10.198,1.087,20.51,0.717,30.659-0.662
			c9.306-1.263,18.451-3.618,27.314-6.701c1.344-0.467,3.253,1.144,4.407,1.724c1.257,0.628,2.548,1.197,3.847,1.735
			c3.562,1.478,7.191,2.77,10.854,3.976c4.434,1.457,8.922,2.787,13.44,3.952c5.089,1.312,3.247,13.75,2.851,17.688
			C216.518,148.911,212.866,159.038,206.161,167.207z M130.306,197.018c0.206,0.025,0.339-0.185,0.356-0.355
			c-0.128,1.307,3.817,3.355,5.256,4.056c2.216,1.076,4.761,1.732,7.203,1.986c5.423,0.562,10.027-0.394,14.211-4.017
			c1.275-1.104,1.99-2.729,3.582-3.291c1.273-0.447,2.539-0.92,3.801-1.396c4.006-1.518,7.956-3.174,11.862-4.93
			c5.226-2.35,10.335-4.963,15.271-7.877c0.971-0.574,13.076-8.455,12.729-9.002c2.931,4.633,4.575,10.226,6.136,15.436
			c1.48,4.95,2.85,10.121,3.246,15.29c0.326,5.04,0.65,10.081,0.715,15.133c0.042,3.441,0.924,9.521-3.021,11.009
			c-3.533,1.336-7.801,1.104-11.504,1.034c-7.049-0.132-14.094-0.933-21.084-1.786c-14.806-1.809-28.164-6.412-40.638-14.652
			c-3.782-2.498-7.378-5.284-10.772-8.285c-0.922-0.814-1.82-1.654-2.699-2.518C126.046,203.922,130.383,197.025,130.306,197.018z
			 M65.507,180.268c-15.692-3.531-32.64-8.498-44.623-19.822c-7.097-6.706-10.679-15.592-11.36-25.216
			c-0.367-5.208,0.748-8.904,4.857-12.349c4.843-4.063,11.288-6.238,17.244-8.035c12.081-3.645,24.91-5.488,37.491-6.192
			c9.861-0.552,19.778-0.425,29.648-0.371c4.177,0.025,8.351,0.068,12.525,0.125c1.041,0.014-0.86,1.774-1.337,2.447
			c-0.954,1.345-1.914,2.687-2.874,4.027c-1.097,1.531-4.458,4.794-4.52,6.793c-0.028,0.036-0.057,0.076-0.084,0.112
			c-0.15-0.138-0.439-0.082-0.559,0.085c-0.609,0.841-1.222,1.676-1.875,2.485c-0.113,0.139-0.161,0.37,0,0.503
			c0.093,0.078-16.222,18.574-17.487,19.915c-4.784,5.061-9.878,9.777-14.863,14.635c-3.091,3.01-6.62,6.766-7.485,11.154
			c-1.91,9.682,15.271,6.104,19.623,4.871c2.56-0.726,1.083,0.39,0.202,1.836c-0.861,1.412-1.689,2.842-2.488,4.291
			c-0.542,0.981,0.083,0.934-0.905,0.752c-0.844-0.154-1.687-0.312-2.529-0.465C71.24,181.32,68.373,180.794,65.507,180.268z
			 M80.799,64.422c11.661,3.02,23.043,8.351,33.581,14.08c3.359,1.826,6.627,3.815,9.817,5.921c2.478,1.635,2.083,2.328,0.509,4.675
			c-1.185,1.766-2.35,3.546-3.507,5.33c-0.954,1.47-1.897,2.949-2.82,4.438c-1.315,2.122-4.16,4.647-4.588,7.17
			c-0.082,0.117-0.162,0.229-0.245,0.348c-0.058-0.043-0.121-0.082-0.197-0.083c-9.019-0.137-18.041-0.206-27.062-0.166
			c-2.042,0.01-5.957,0.802-7.525-0.679c-1.368-1.292-2.675-2.646-3.96-4.021c-2.628-2.809-7.047-7.058-7.144-11.22
			c1.355-4.822,10.202-2.018,13.23-0.938c3.041,1.085,5.944,2.471,9.101,3.226c4.038,0.965,4.91-1.66,2.753-4.799
			c-2.989-4.352-5.467-9.116-7.967-13.759c-1.224-2.273-2.414-4.566-3.549-6.889c-0.448-0.917-0.876-1.844-1.265-2.787
			c-0.014-0.036-0.032-0.04-0.049-0.068C80.208,64.271,80.504,64.346,80.799,64.422z M175.219,37.708
			c4.676-1.315,9.701-2.136,14.035,0.589c4.168,2.621,5.319,8.467,6.033,12.946c1.584,9.939,1.111,19.153-4.443,27.891
			c-0.104,0.167-0.029,0.373,0.122,0.479c-0.004,0.001-0.008,0.002-0.011,0.005c-1.004-0.622-4.91,2.088-5.829,2.559
			c-2.47,1.265-4.937,2.534-7.411,3.784c-5.221,2.635-10.51,5.142-15.979,7.221c-8.942,3.398-18.514,5.099-28.041,5.619
			c-2.966,0.163-5.94,0.154-8.907,0.036c-1.074-0.043-2.147-0.118-3.219-0.207c-0.978-0.081-0.786,0.417-0.249-0.426
			c1.969-3.092,3.994-6.149,6.043-9.186c6.991-10.351,14.383-20.467,22.481-29.982C156.579,51.125,164.93,40.959,175.219,37.708z
			 M115.956,206.884c-5.37,3.507-10.812,6.892-16.472,9.912c-6.003,3.205-12.462,5.306-18.375,8.69
			c-1.35,0.774-2.689,1.562-4.066,2.287c-0.279,0.146-4.788,2.302-3.581,0.371c0.902-1.443,2.406-2.625,3.661-3.742
			c4.657-4.144,9.83-7.81,15.019-11.25c7.589-5.031,16.327-8.656,24.552-12.498c1.749-0.816,3.502-1.625,5.257-2.43
			c0.809-0.371,1.619-0.738,2.434-1.099c0.604-0.269,3.682,0.029,3.785-0.138C125.556,201.223,119.957,204.236,115.956,206.884z
			 M103.383,186.525c-2.659-0.35-5.317-0.699-7.976-1.059c0.911-1.095,1.727-2.246,2.456-3.474
			C99.614,183.615,101.464,185.111,103.383,186.525z M93.883,187.057c0.003,0,0.004,0,0.007,0c0,0.002-0.005,0.004-0.007,0.006
			C93.885,187.061,93.883,187.059,93.883,187.057z"/>
	</g>
</g>
</svg>
